<svg xmlns="http://www.w3.org/2000/svg" viewBox="0 0 512 512" role="img" aria-labelledby="title">
	<title>The Penthouse app icon</title>
	<defs>
		<linearGradient id="bg" x1="78" y1="56" x2="434" y2="456" gradientUnits="userSpaceOnUse">
			<stop stop-color="#12121C"/>
			<stop offset="0.52" stop-color="#24223B"/>
			<stop offset="1" stop-color="#1C3E3D"/>
		</linearGradient>
	</defs>
	<rect width="512" height="512" rx="112" fill="url(#bg)"/>
	<circle cx="384" cy="126" r="84" fill="#8A7CFF" opacity="0.28"/>
	<circle cx="114" cy="404" r="112" fill="#62D6B2" opacity="0.18"/>
	<path fill="#F7F4FF" fill-rule="evenodd" d="M148 376V136h156c60 0 106 43 106 100s-46 100-106 100h-92v40h-64Zm64-96h84c29 0 50-18 50-44s-21-44-50-44h-84v88Z"/>
	<path fill="#FFFFFF" opacity="0.72" d="M142 408h228c10 0 18 8 18 18s-8 18-18 18H142c-10 0-18-8-18-18s8-18 18-18Z"/>
</svg>
